<svg width="242" height="172" viewBox="0 0 242 172" fill="none" xmlns="http://www.w3.org/2000/svg">
<g clip-path="url(#clip0_49_25)">
<path d="M94.7862 1H127.671L106.527 120.957L106.527 120.958C103.926 135.859 97.0016 148.247 86.376 156.914C75.7493 165.582 61.3519 170.583 43.7112 170.583C29.9056 170.583 19.246 167.367 12.0498 161.178C4.87878 155.011 1 145.765 1 133.371C1 129.206 1.49293 125.022 2.24325 120.3L5.10837 104.151H34.7427L32.4226 118.209C32.4222 118.211 32.4218 118.213 32.4215 118.216C31.6681 122.457 31.1501 126.029 31.1501 128.876C31.1501 134.512 32.5038 138.493 35.5655 141.011C38.5771 143.488 43.0229 144.359 48.7279 144.359C56.9117 144.359 62.5189 142.512 66.4578 138.127C70.335 133.811 72.4416 127.19 74.0763 118.061L74.0766 118.059L94.7862 1Z" fill="#29CF52" stroke="#29CF52" stroke-width="2"/>
<path d="M208.357 164.837H175.223L188.326 91.5862L188.536 90.4101H187.341H123.471L128.145 63.4399H192.366H193.204L193.351 62.6142L204.255 1H237.391L208.357 164.837Z" fill="#29CF52" stroke="#29CF52" stroke-width="2"/>
</g>
<defs>
<clipPath id="clip0_49_25">
<rect width="242" height="171.583" fill="white"/>
</clipPath>
</defs>
</svg>
